<mxfile host="app.diagrams.net" modified="2022-07-17T03:20:14.861Z" agent="5.0 (Macintosh; Intel Mac OS X 10_15_7) AppleWebKit/605.1.15 (KHTML, like Gecko) Version/15.5 Safari/605.1.15" etag="SMs3K_PzB4v0SLlHagxF" version="20.1.1" type="github">
  <diagram id="_9_iLBfaWsJD9Fi8VVCr" name="Page-1">
    <mxGraphModel dx="840" dy="406" grid="1" gridSize="10" guides="1" tooltips="1" connect="1" arrows="1" fold="1" page="1" pageScale="1" pageWidth="827" pageHeight="1169" background="#F4F1DE" math="0" shadow="0">
      <root>
        <mxCell id="0" />
        <mxCell id="1" parent="0" />
        <mxCell id="LeHQ8lefssX2dGawRqEB-1" value="TraderConfig" style="rounded=1;whiteSpace=wrap;html=1;fillColor=#F2CC8F;strokeColor=#E07A5F;fontColor=#393C56;" vertex="1" parent="1">
          <mxGeometry x="170" y="80" width="120" height="60" as="geometry" />
        </mxCell>
        <mxCell id="LeHQ8lefssX2dGawRqEB-2" value="CopierConfig" style="rounded=1;whiteSpace=wrap;html=1;fillColor=#F2CC8F;strokeColor=#E07A5F;fontColor=#393C56;" vertex="1" parent="1">
          <mxGeometry x="170" y="170" width="120" height="60" as="geometry" />
        </mxCell>
        <mxCell id="LeHQ8lefssX2dGawRqEB-12" style="edgeStyle=orthogonalEdgeStyle;rounded=1;orthogonalLoop=1;jettySize=auto;html=1;entryX=1;entryY=0.5;entryDx=0;entryDy=0;labelBackgroundColor=#F4F1DE;strokeColor=#E07A5F;fontColor=#393C56;" edge="1" parent="1" source="LeHQ8lefssX2dGawRqEB-3" target="LeHQ8lefssX2dGawRqEB-1">
          <mxGeometry relative="1" as="geometry" />
        </mxCell>
        <mxCell id="LeHQ8lefssX2dGawRqEB-13" style="edgeStyle=orthogonalEdgeStyle;rounded=1;orthogonalLoop=1;jettySize=auto;html=1;entryX=1;entryY=0.5;entryDx=0;entryDy=0;labelBackgroundColor=#F4F1DE;strokeColor=#E07A5F;fontColor=#393C56;" edge="1" parent="1" source="LeHQ8lefssX2dGawRqEB-3" target="LeHQ8lefssX2dGawRqEB-2">
          <mxGeometry relative="1" as="geometry" />
        </mxCell>
        <mxCell id="LeHQ8lefssX2dGawRqEB-18" style="edgeStyle=orthogonalEdgeStyle;rounded=1;orthogonalLoop=1;jettySize=auto;html=1;entryX=0;entryY=0.5;entryDx=0;entryDy=0;labelBackgroundColor=#F4F1DE;strokeColor=#E07A5F;fontColor=#393C56;" edge="1" parent="1" source="LeHQ8lefssX2dGawRqEB-3" target="LeHQ8lefssX2dGawRqEB-14">
          <mxGeometry relative="1" as="geometry">
            <Array as="points">
              <mxPoint x="500" y="110" />
              <mxPoint x="500" y="110" />
            </Array>
          </mxGeometry>
        </mxCell>
        <mxCell id="LeHQ8lefssX2dGawRqEB-28" style="edgeStyle=orthogonalEdgeStyle;curved=0;rounded=1;sketch=0;orthogonalLoop=1;jettySize=auto;html=1;entryX=0;entryY=0.5;entryDx=0;entryDy=0;fontColor=#393C56;strokeColor=#E07A5F;fillColor=#F2CC8F;" edge="1" parent="1" source="LeHQ8lefssX2dGawRqEB-3" target="LeHQ8lefssX2dGawRqEB-21">
          <mxGeometry relative="1" as="geometry" />
        </mxCell>
        <mxCell id="LeHQ8lefssX2dGawRqEB-3" value="ConfigCache" style="rounded=0;whiteSpace=wrap;html=1;fillColor=#F2CC8F;strokeColor=#E07A5F;fontColor=#393C56;" vertex="1" parent="1">
          <mxGeometry x="354" y="80" width="120" height="150" as="geometry" />
        </mxCell>
        <mxCell id="LeHQ8lefssX2dGawRqEB-8" style="edgeStyle=orthogonalEdgeStyle;rounded=1;orthogonalLoop=1;jettySize=auto;html=1;entryX=0;entryY=0.5;entryDx=0;entryDy=0;exitX=1;exitY=0.5;exitDx=0;exitDy=0;labelBackgroundColor=#F4F1DE;strokeColor=#E07A5F;fontColor=#393C56;" edge="1" parent="1" source="LeHQ8lefssX2dGawRqEB-5" target="LeHQ8lefssX2dGawRqEB-6">
          <mxGeometry relative="1" as="geometry" />
        </mxCell>
        <mxCell id="LeHQ8lefssX2dGawRqEB-4" value="App UI" style="swimlane;fillColor=#F2CC8F;strokeColor=#E07A5F;fontColor=#393C56;" vertex="1" parent="1">
          <mxGeometry x="140" y="300" width="200" height="200" as="geometry" />
        </mxCell>
        <mxCell id="LeHQ8lefssX2dGawRqEB-5" value="ConfigManager" style="rounded=1;whiteSpace=wrap;html=1;fillColor=#F2CC8F;strokeColor=#E07A5F;fontColor=#393C56;" vertex="1" parent="LeHQ8lefssX2dGawRqEB-4">
          <mxGeometry x="40" y="40" width="120" height="60" as="geometry" />
        </mxCell>
        <mxCell id="LeHQ8lefssX2dGawRqEB-7" value="Subscription" style="rounded=1;whiteSpace=wrap;html=1;fillColor=#F2CC8F;strokeColor=#E07A5F;fontColor=#393C56;" vertex="1" parent="LeHQ8lefssX2dGawRqEB-4">
          <mxGeometry x="40" y="120" width="120" height="60" as="geometry" />
        </mxCell>
        <mxCell id="LeHQ8lefssX2dGawRqEB-11" style="edgeStyle=orthogonalEdgeStyle;rounded=1;orthogonalLoop=1;jettySize=auto;html=1;entryX=1;entryY=0.5;entryDx=0;entryDy=0;labelBackgroundColor=#F4F1DE;strokeColor=#E07A5F;fontColor=#393C56;" edge="1" parent="1" source="LeHQ8lefssX2dGawRqEB-6" target="LeHQ8lefssX2dGawRqEB-3">
          <mxGeometry relative="1" as="geometry" />
        </mxCell>
        <mxCell id="LeHQ8lefssX2dGawRqEB-26" style="edgeStyle=orthogonalEdgeStyle;rounded=1;orthogonalLoop=1;jettySize=auto;html=1;entryX=0;entryY=0.5;entryDx=0;entryDy=0;entryPerimeter=0;labelBackgroundColor=#F4F1DE;strokeColor=#E07A5F;fontColor=#393C56;" edge="1" parent="1" source="LeHQ8lefssX2dGawRqEB-6" target="LeHQ8lefssX2dGawRqEB-24">
          <mxGeometry relative="1" as="geometry" />
        </mxCell>
        <mxCell id="LeHQ8lefssX2dGawRqEB-6" value="ConfigService" style="rounded=1;whiteSpace=wrap;html=1;fillColor=#F2CC8F;strokeColor=#E07A5F;fontColor=#393C56;" vertex="1" parent="1">
          <mxGeometry x="440" y="340" width="120" height="60" as="geometry" />
        </mxCell>
        <mxCell id="LeHQ8lefssX2dGawRqEB-27" style="edgeStyle=orthogonalEdgeStyle;rounded=1;orthogonalLoop=1;jettySize=auto;html=1;entryX=0;entryY=0.5;entryDx=0;entryDy=0;entryPerimeter=0;labelBackgroundColor=#F4F1DE;strokeColor=#E07A5F;fontColor=#393C56;" edge="1" parent="1" source="LeHQ8lefssX2dGawRqEB-9" target="LeHQ8lefssX2dGawRqEB-24">
          <mxGeometry relative="1" as="geometry" />
        </mxCell>
        <mxCell id="LeHQ8lefssX2dGawRqEB-9" value="SubService" style="rounded=1;whiteSpace=wrap;html=1;fillColor=#F2CC8F;strokeColor=#E07A5F;fontColor=#393C56;" vertex="1" parent="1">
          <mxGeometry x="440" y="420" width="120" height="60" as="geometry" />
        </mxCell>
        <mxCell id="LeHQ8lefssX2dGawRqEB-10" style="edgeStyle=orthogonalEdgeStyle;rounded=1;orthogonalLoop=1;jettySize=auto;html=1;entryX=0;entryY=0.5;entryDx=0;entryDy=0;labelBackgroundColor=#F4F1DE;strokeColor=#E07A5F;fontColor=#393C56;" edge="1" parent="1" source="LeHQ8lefssX2dGawRqEB-7" target="LeHQ8lefssX2dGawRqEB-9">
          <mxGeometry relative="1" as="geometry" />
        </mxCell>
        <mxCell id="LeHQ8lefssX2dGawRqEB-20" style="edgeStyle=orthogonalEdgeStyle;rounded=0;orthogonalLoop=1;jettySize=auto;html=1;entryX=0.5;entryY=0;entryDx=0;entryDy=0;labelBackgroundColor=#F4F1DE;strokeColor=#E07A5F;fontColor=#393C56;" edge="1" parent="1" source="LeHQ8lefssX2dGawRqEB-14" target="LeHQ8lefssX2dGawRqEB-19">
          <mxGeometry relative="1" as="geometry" />
        </mxCell>
        <mxCell id="LeHQ8lefssX2dGawRqEB-14" value="CronTradeListener" style="rounded=0;whiteSpace=wrap;html=1;fillColor=#F2CC8F;strokeColor=#E07A5F;fontColor=#393C56;" vertex="1" parent="1">
          <mxGeometry x="600" y="80" width="120" height="60" as="geometry" />
        </mxCell>
        <mxCell id="LeHQ8lefssX2dGawRqEB-16" style="edgeStyle=orthogonalEdgeStyle;rounded=1;orthogonalLoop=1;jettySize=auto;html=1;entryX=1;entryY=0.5;entryDx=0;entryDy=0;labelBackgroundColor=#F4F1DE;strokeColor=#E07A5F;fontColor=#393C56;" edge="1" parent="1" source="LeHQ8lefssX2dGawRqEB-15" target="LeHQ8lefssX2dGawRqEB-14">
          <mxGeometry relative="1" as="geometry" />
        </mxCell>
        <mxCell id="LeHQ8lefssX2dGawRqEB-15" value="Binance" style="ellipse;whiteSpace=wrap;html=1;aspect=fixed;fillColor=#F2CC8F;strokeColor=#E07A5F;fontColor=#393C56;" vertex="1" parent="1">
          <mxGeometry x="800" y="70" width="80" height="80" as="geometry" />
        </mxCell>
        <mxCell id="LeHQ8lefssX2dGawRqEB-22" style="edgeStyle=orthogonalEdgeStyle;rounded=0;orthogonalLoop=1;jettySize=auto;html=1;entryX=0.5;entryY=0;entryDx=0;entryDy=0;labelBackgroundColor=#F4F1DE;strokeColor=#E07A5F;fontColor=#393C56;" edge="1" parent="1" source="LeHQ8lefssX2dGawRqEB-19" target="LeHQ8lefssX2dGawRqEB-21">
          <mxGeometry relative="1" as="geometry" />
        </mxCell>
        <mxCell id="LeHQ8lefssX2dGawRqEB-19" value="KafkaChannel" style="rounded=1;whiteSpace=wrap;html=1;fillColor=#F2CC8F;strokeColor=#E07A5F;fontColor=#393C56;" vertex="1" parent="1">
          <mxGeometry x="600" y="180" width="120" height="60" as="geometry" />
        </mxCell>
        <mxCell id="LeHQ8lefssX2dGawRqEB-23" style="edgeStyle=orthogonalEdgeStyle;rounded=1;orthogonalLoop=1;jettySize=auto;html=1;entryX=0.5;entryY=1;entryDx=0;entryDy=0;labelBackgroundColor=#F4F1DE;strokeColor=#E07A5F;fontColor=#393C56;" edge="1" parent="1" source="LeHQ8lefssX2dGawRqEB-21" target="LeHQ8lefssX2dGawRqEB-15">
          <mxGeometry relative="1" as="geometry" />
        </mxCell>
        <mxCell id="LeHQ8lefssX2dGawRqEB-25" style="edgeStyle=orthogonalEdgeStyle;rounded=0;orthogonalLoop=1;jettySize=auto;html=1;entryX=0.5;entryY=0;entryDx=0;entryDy=0;entryPerimeter=0;labelBackgroundColor=#F4F1DE;strokeColor=#E07A5F;fontColor=#393C56;" edge="1" parent="1" source="LeHQ8lefssX2dGawRqEB-21" target="LeHQ8lefssX2dGawRqEB-24">
          <mxGeometry relative="1" as="geometry" />
        </mxCell>
        <mxCell id="LeHQ8lefssX2dGawRqEB-21" value="CopierService" style="rounded=1;whiteSpace=wrap;html=1;fillColor=#F2CC8F;strokeColor=#E07A5F;fontColor=#393C56;" vertex="1" parent="1">
          <mxGeometry x="600" y="280" width="120" height="60" as="geometry" />
        </mxCell>
        <mxCell id="LeHQ8lefssX2dGawRqEB-24" value="TradeLogs" style="shape=cylinder3;whiteSpace=wrap;html=1;boundedLbl=1;backgroundOutline=1;size=15;fillColor=#F2CC8F;strokeColor=#E07A5F;fontColor=#393C56;" vertex="1" parent="1">
          <mxGeometry x="630" y="390" width="60" height="80" as="geometry" />
        </mxCell>
      </root>
    </mxGraphModel>
  </diagram>
</mxfile>
